<svg width="40" height="40" viewBox="0 0 40 40" fill="none" xmlns="http://www.w3.org/2000/svg">
<path d="M25.0835 8.33341C26.7114 8.65102 28.2075 9.44718 29.3803 10.62C30.5531 11.7928 31.3493 13.2889 31.6669 14.9167M25.0835 1.66675C28.4657 2.04248 31.6195 3.55704 34.0273 5.96176C36.435 8.36648 37.9536 11.5184 38.3335 14.9001M36.6669 28.2001V33.2001C36.6688 33.6642 36.5737 34.1237 36.3877 34.549C36.2018 34.9743 35.929 35.3561 35.587 35.6699C35.245 35.9837 34.8412 36.2226 34.4015 36.3713C33.9618 36.52 33.4958 36.5752 33.0335 36.5334C27.9049 35.9761 22.9785 34.2237 18.6502 31.4167C14.6233 28.8579 11.2091 25.4437 8.65021 21.4167C5.83351 17.0688 4.08062 12.1184 3.53355 6.96675C3.4919 6.50586 3.54667 6.04135 3.69438 5.60279C3.84209 5.16423 4.0795 4.76123 4.39149 4.41945C4.70348 4.07767 5.08322 3.8046 5.50653 3.61762C5.92984 3.43064 6.38745 3.33385 6.85021 3.33341H11.8502C12.6591 3.32545 13.4432 3.61188 14.0565 4.1393C14.6698 4.66673 15.0703 5.39916 15.1835 6.20008C15.3946 7.80019 15.786 9.37129 16.3502 10.8834C16.5745 11.48 16.623 12.1283 16.4901 12.7515C16.3571 13.3748 16.0483 13.9469 15.6002 14.4001L13.4835 16.5167C15.8561 20.6893 19.311 24.1442 23.4835 26.5167L25.6002 24.4001C26.0534 23.952 26.6255 23.6432 27.2487 23.5102C27.872 23.3773 28.5203 23.4258 29.1169 23.6501C30.629 24.2143 32.2001 24.6057 33.8002 24.8167C34.6098 24.931 35.3492 25.3388 35.8778 25.9626C36.4063 26.5864 36.6872 27.3827 36.6669 28.2001Z" stroke="#FC5056" stroke-width="2" stroke-linecap="round" stroke-linejoin="round"/>
</svg>
